<svg xmlns="http://www.w3.org/2000/svg" xmlns:xlink="http://www.w3.org/1999/xlink" width="210" height="211" overflow="hidden"><defs><clipPath id="clip0"><path fill-rule="evenodd" d="M243 439 453 439 453 650 243 650Z" clip-rule="evenodd"/></clipPath></defs><metadata>OOXML preset shape geometry</metadata><g clip-path="url(#clip0)" transform="translate(-243 -439)"><path fill="#B4C7E7" fill-rule="evenodd" d="M247 444 449 444 449 645 247 645ZM385.687 544.5 272.625 469.125 272.625 619.875ZM404.531 469.125 423.375 469.125 423.375 619.875 404.531 619.875Z"/><path fill="#6C778B" fill-rule="evenodd" d="M385.687 544.5 272.625 469.125 272.625 619.875ZM404.531 469.125 423.375 469.125 423.375 619.875 404.531 619.875Z"/><path fill="none" fill-rule="evenodd" stroke="#2F528F" stroke-miterlimit="8" stroke-width="8" d="M385.687 544.5 272.625 619.875 272.625 469.125ZM404.531 469.125 423.375 469.125 423.375 619.875 404.531 619.875Z"/><rect width="202" height="201" x="247" y="444" fill="none" stroke="#2F528F" stroke-miterlimit="8" stroke-width="8"/></g></svg>