<svg xmlns="http://www.w3.org/2000/svg" xmlns:xlink="http://www.w3.org/1999/xlink" width="208" height="209" overflow="hidden"><defs><clipPath id="clip0"><path fill-rule="evenodd" d="M244 420 452 420 452 629 244 629Z" clip-rule="evenodd"/></clipPath></defs><metadata>OOXML preset shape geometry</metadata><g clip-path="url(#clip0)" transform="translate(-244 -420)"><path fill="#B4C7E7" fill-rule="evenodd" d="M247 424 449 424 449 625 247 625ZM291.469 449.125 366.844 449.125 404.531 486.812 404.531 599.875 291.469 599.875Z"/><path fill="#91A0BA" fill-rule="evenodd" d="M291.469 449.125 366.844 449.125 366.844 486.812 404.531 486.812 404.531 599.875 291.469 599.875Z"/><path fill="#6C778B" fill-rule="evenodd" d="M366.844 449.125 366.844 486.812 404.531 486.812Z"/><path fill="none" fill-rule="evenodd" stroke="#2F528F" stroke-miterlimit="8" stroke-width="6" d="M291.469 449.125 366.844 449.125 404.531 486.812 404.531 599.875 291.469 599.875ZM404.531 486.812 366.844 486.812 366.844 449.125"/><rect width="202" height="201" x="247" y="424" fill="none" stroke="#2F528F" stroke-miterlimit="8" stroke-width="6"/></g></svg>