<svg xmlns="http://www.w3.org/2000/svg" xmlns:xlink="http://www.w3.org/1999/xlink" width="246" height="246" overflow="hidden"><defs><clipPath id="clip0"><path fill-rule="evenodd" d="M207 427 453 427 453 673 207 673Z" clip-rule="evenodd"/></clipPath></defs><metadata>OOXML preset shape geometry</metadata><g clip-path="url(#clip0)" transform="translate(-207 -427)"><path fill="#B4C7E7" fill-rule="evenodd" d="M212 432 449 432 449 669 212 669ZM241.625 517.172 241.625 583.828 297.172 583.828 352.719 639.375 352.719 461.625 297.172 517.172Z"/><path fill="#6C778B" fill-rule="evenodd" d="M241.625 517.172 241.625 583.828 297.172 583.828 352.719 639.375 352.719 461.625 297.172 517.172Z"/><path fill="none" fill-rule="evenodd" stroke="#2F528F" stroke-miterlimit="8" stroke-width="8" d="M241.625 517.172 297.172 517.172 352.719 461.625 352.719 639.375 297.172 583.828 241.625 583.828ZM374.938 517.172 419.375 483.844M374.938 550.5 419.375 550.5M374.938 583.828 419.375 617.156"/><rect width="237" height="237" x="212" y="432" fill="none" stroke="#2F528F" stroke-miterlimit="8" stroke-width="8"/></g></svg>