<svg xmlns="http://www.w3.org/2000/svg" xmlns:xlink="http://www.w3.org/1999/xlink" width="250" height="250" overflow="hidden"><defs><clipPath id="clip0"><path fill-rule="evenodd" d="M203 431 453 431 453 681 203 681Z" clip-rule="evenodd"/></clipPath></defs><metadata>OOXML preset shape geometry</metadata><g clip-path="url(#clip0)" transform="translate(-203 -431)"><path fill="#B4C7E7" fill-rule="evenodd" d="M208 436 449 436 449 677 208 677ZM328.5 466.125C378.413 466.125 418.875 506.587 418.875 556.5 418.875 606.413 378.413 646.875 328.5 646.875 278.587 646.875 238.125 606.413 238.125 556.5 238.125 506.587 278.587 466.125 328.5 466.125Z"/><path fill="#6C778B" fill-rule="evenodd" d="M328.5 466.125C378.413 466.125 418.875 506.587 418.875 556.5 418.875 606.413 378.413 646.875 328.5 646.875 278.587 646.875 238.125 606.413 238.125 556.5 238.125 506.587 278.587 466.125 328.5 466.125ZM328.5 471.773C337.859 471.773 345.445 479.36 345.445 488.719 345.445 498.077 337.859 505.664 328.5 505.664 319.141 505.664 311.555 498.077 311.555 488.719 311.555 479.36 319.141 471.773 328.5 471.773ZM294.609 522.609 294.609 533.906 311.555 533.906 311.555 612.984 294.609 612.984 294.609 624.281 362.391 624.281 362.391 612.984 345.445 612.984 345.445 522.609Z"/><path fill="#D2DDF1" fill-rule="evenodd" d="M328.5 471.773C337.859 471.773 345.445 479.36 345.445 488.719 345.445 498.077 337.859 505.664 328.5 505.664 319.141 505.664 311.555 498.077 311.555 488.719 311.555 479.36 319.141 471.773 328.5 471.773ZM294.609 522.609 345.445 522.609 345.445 612.984 362.391 612.984 362.391 624.281 294.609 624.281 294.609 612.984 311.555 612.984 311.555 533.906 294.609 533.906Z"/><path fill="none" fill-rule="evenodd" stroke="#2F528F" stroke-miterlimit="8" stroke-width="8" d="M328.5 466.125C378.413 466.125 418.875 506.587 418.875 556.5 418.875 606.413 378.413 646.875 328.5 646.875 278.587 646.875 238.125 606.413 238.125 556.5 238.125 506.587 278.587 466.125 328.5 466.125ZM328.5 471.773C337.859 471.773 345.445 479.36 345.445 488.719 345.445 498.077 337.859 505.664 328.5 505.664 319.141 505.664 311.555 498.077 311.555 488.719 311.555 479.36 319.141 471.773 328.5 471.773ZM294.609 522.609 345.445 522.609 345.445 612.984 362.391 612.984 362.391 624.281 294.609 624.281 294.609 612.984 311.555 612.984 311.555 533.906 294.609 533.906Z"/><rect width="241" height="241" x="208" y="436" fill="none" stroke="#2F528F" stroke-miterlimit="8" stroke-width="8"/></g></svg>