<svg xmlns="http://www.w3.org/2000/svg" xmlns:xlink="http://www.w3.org/1999/xlink" width="213" height="214" overflow="hidden"><defs><clipPath id="clip0"><path fill-rule="evenodd" d="M243 435 456 435 456 649 243 649Z" clip-rule="evenodd"/></clipPath></defs><metadata>OOXML preset shape geometry</metadata><g clip-path="url(#clip0)" transform="translate(-243 -435)"><path fill="#B4C7E7" fill-rule="evenodd" d="M247 440 451 440 451 644 247 644ZM310.75 542 425.5 465.5 425.5 618.5ZM291.625 465.5 272.5 465.5 272.5 618.5 291.625 618.5Z"/><path fill="#6C778B" fill-rule="evenodd" d="M310.75 542 425.5 465.5 425.5 618.5ZM291.625 465.5 272.5 465.5 272.5 618.5 291.625 618.5Z"/><path fill="none" fill-rule="evenodd" stroke="#2F528F" stroke-miterlimit="8" stroke-width="8" d="M310.75 542 425.5 465.5 425.5 618.5ZM291.625 465.5 291.625 618.5 272.5 618.5 272.5 465.5Z"/><rect width="204" height="204" x="247" y="440" fill="none" stroke="#2F528F" stroke-miterlimit="8" stroke-width="8"/></g></svg>