<svg xmlns="http://www.w3.org/2000/svg" xmlns:xlink="http://www.w3.org/1999/xlink" width="249" height="248" overflow="hidden"><defs><clipPath id="clip0"><path fill-rule="evenodd" d="M166 56 415 56 415 304 166 304Z" clip-rule="evenodd"/></clipPath></defs><metadata>OOXML preset shape geometry</metadata><g clip-path="url(#clip0)" transform="translate(-166 -56)"><path fill="#B4C7E7" fill-rule="evenodd" d="M171 61 410 61 410 299.998 171 299.998ZM290.5 90.8747 200.876 180.499 223.282 180.499 223.282 270.123 357.718 270.123 357.718 180.499 380.124 180.499 346.515 146.89 346.515 102.078 324.109 102.078 324.109 124.484Z"/><path fill="#91A0BA" fill-rule="evenodd" d="M346.515 146.89 346.515 102.078 324.109 102.078 324.109 124.484ZM223.282 180.499 223.282 270.123 279.297 270.123 279.297 225.311 301.703 225.311 301.703 270.123 357.718 270.123 357.718 180.499Z"/><path fill="#6C778B" fill-rule="evenodd" d="M290.5 90.8747 200.876 180.499 380.124 180.499ZM279.297 225.311 301.703 225.311 301.703 270.123 279.297 270.123Z"/><path fill="none" fill-rule="evenodd" stroke="#2F528F" stroke-miterlimit="8" stroke-width="8" d="M290.5 90.8747 324.109 124.484 324.109 102.078 346.515 102.078 346.515 146.89 380.124 180.499 357.718 180.499 357.718 270.123 223.282 270.123 223.282 180.499 200.876 180.499ZM324.109 124.484 346.515 146.89M357.718 180.499 223.282 180.499M279.297 270.123 279.297 225.311 301.703 225.311 301.703 270.123"/><rect width="239" height="238.998" x="171" y="61" fill="none" stroke="#2F528F" stroke-miterlimit="8" stroke-width="8"/></g></svg>