<svg xmlns="http://www.w3.org/2000/svg" xmlns:xlink="http://www.w3.org/1999/xlink" width="277" height="190" overflow="hidden"><defs><clipPath id="clip0"><path fill-rule="evenodd" d="M745 448 1022 448 1022 638 745 638Z" clip-rule="evenodd"/></clipPath></defs><metadata>OOXML preset shape geometry</metadata><g clip-path="url(#clip0)" transform="translate(-745 -448)"><path fill="#B4C7E7" fill-rule="evenodd" d="M808.165 633C799.835 633 793.083 626.247 793.083 617.917L793.083 557.583C793.083 549.253 786.33 542.5 778 542.5 786.33 542.5 793.083 535.747 793.083 527.417L793.083 467.083C793.083 458.753 799.835 452 808.165 452L958.835 452C967.165 452 973.917 458.753 973.917 467.083L973.917 527.417C973.917 535.747 980.67 542.5 989 542.5 980.67 542.5 973.917 549.253 973.917 557.583L973.917 617.917C973.917 626.247 967.165 633 958.835 633Z"/><path fill="none" fill-rule="evenodd" stroke="#4472C4" stroke-miterlimit="8" stroke-width="8" d="M808.165 633C799.835 633 793.083 626.247 793.083 617.917L793.083 557.583C793.083 549.253 786.33 542.5 778 542.5 786.33 542.5 793.083 535.747 793.083 527.417L793.083 467.083C793.083 458.753 799.835 452 808.165 452M958.835 452C967.165 452 973.917 458.753 973.917 467.083L973.917 527.417C973.917 535.747 980.67 542.5 989 542.5 980.67 542.5 973.917 549.253 973.917 557.583L973.917 617.917C973.917 626.247 967.165 633 958.835 633"/></g></svg>