<svg xmlns="http://www.w3.org/2000/svg" xmlns:xlink="http://www.w3.org/1999/xlink" width="234" height="234" overflow="hidden"><defs><clipPath id="clip0"><path fill-rule="evenodd" d="M734 418 968 418 968 652 734 652Z" clip-rule="evenodd"/></clipPath></defs><metadata>OOXML preset shape geometry</metadata><g clip-path="url(#clip0)" transform="translate(-734 -418)"><path fill="#B4C7E7" fill-rule="evenodd" d="M738 459.501C738 438.79 754.79 422 775.501 422L925.499 422C946.21 422 963 438.79 963 459.501L963 609.499C963 630.21 946.21 647 925.499 647L775.501 647C754.79 647 738 630.21 738 609.499Z"/><path fill="none" fill-rule="evenodd" stroke="#4472C4" stroke-miterlimit="8" stroke-width="8" d="M775.501 647C754.79 647 738 630.21 738 609.499L738 459.501C738 438.79 754.79 422 775.501 422M925.499 422C946.21 422 963 438.79 963 459.501L963 609.499C963 630.21 946.21 647 925.499 647"/></g></svg>