<svg xmlns="http://www.w3.org/2000/svg" xmlns:xlink="http://www.w3.org/1999/xlink" width="153" height="200" overflow="hidden"><defs><clipPath id="clip0"><path fill-rule="evenodd" d="M824 451 977 451 977 651 824 651Z" clip-rule="evenodd"/></clipPath></defs><metadata>OOXML preset shape geometry</metadata><g clip-path="url(#clip0)" transform="translate(-824 -451)"><path fill="#B4C7E7" fill-rule="evenodd" d="M829 473.875C829 483.747 861.012 491.75 900.5 491.75 939.988 491.75 972 483.747 972 473.875L972 628.125C972 637.997 939.988 646 900.5 646 861.012 646 829 637.997 829 628.125Z"/><path fill="#D2DDF1" fill-rule="evenodd" d="M829 473.875C829 464.003 861.012 456 900.5 456 939.988 456 972 464.003 972 473.875 972 483.747 939.988 491.75 900.5 491.75 861.012 491.75 829 483.747 829 473.875Z"/><path fill="none" fill-rule="evenodd" stroke="#2F528F" stroke-miterlimit="8" stroke-width="8" d="M972 473.875C972 483.747 939.988 491.75 900.5 491.75 861.012 491.75 829 483.747 829 473.875 829 464.003 861.012 456 900.5 456 939.988 456 972 464.003 972 473.875ZM972 473.875 972 628.125C972 637.997 939.988 646 900.5 646 861.012 646 829 637.997 829 628.125L829 473.875"/></g></svg>