<svg xmlns="http://www.w3.org/2000/svg" xmlns:xlink="http://www.w3.org/1999/xlink" width="169" height="274" overflow="hidden"><defs><clipPath id="clip0"><path fill-rule="evenodd" d="M830 402 999 402 999 676 830 676Z" clip-rule="evenodd"/></clipPath></defs><metadata>OOXML preset shape geometry</metadata><g clip-path="url(#clip0)" transform="translate(-830 -402)"><path fill="#B4C7E7" fill-rule="evenodd" d="M835 507.875C835 554.33 883.74 594.902 953.5 606.515L953.5 586.765 993 629.5 953.5 665.765 953.5 646.015C883.74 634.401 835 593.83 835 547.375Z"/><path fill="#91A0BA" fill-rule="evenodd" d="M993 445.5C917.548 445.5 852.625 479.898 837.998 527.625 821.081 472.429 876.764 418.84 962.369 407.933 972.458 406.647 982.717 406 993 406Z"/><path fill="none" fill-rule="evenodd" stroke="#2F528F" stroke-miterlimit="8" stroke-width="8" d="M835 507.875C835 554.33 883.74 594.902 953.5 606.515L953.5 586.765 993 629.5 953.5 665.765 953.5 646.015C883.74 634.401 835 593.83 835 547.375L835 507.875C835 451.611 905.739 406 993 406L993 445.5C917.548 445.5 852.625 479.898 837.998 527.625"/></g></svg>