<svg xmlns="http://www.w3.org/2000/svg" xmlns:xlink="http://www.w3.org/1999/xlink" width="290" height="179" overflow="hidden"><defs><clipPath id="clip0"><path fill-rule="evenodd" d="M783 448 1073 448 1073 627 783 627Z" clip-rule="evenodd"/></clipPath></defs><metadata>OOXML preset shape geometry</metadata><g clip-path="url(#clip0)" transform="translate(-783 -448)"><path fill="#B4C7E7" fill-rule="evenodd" d="M1024 620 978.571 578 999.571 578C987.259 503.825 944.248 452 895 452L937 452C986.248 452 1029.26 503.825 1041.57 578L1062.57 578Z"/><path fill="#91A0BA" fill-rule="evenodd" d="M916 455.206C865.433 470.799 829 539.81 829 620L787 620C787 527.216 835.353 452 895 452 902.05 452 909.084 453.074 916 455.207Z"/><path fill="none" fill-rule="evenodd" stroke="#2F528F" stroke-miterlimit="8" stroke-width="8" d="M916 455.206C865.433 470.799 829 539.81 829 620L787 620C787 527.216 835.353 452 895 452L937 452C986.248 452 1029.26 503.825 1041.57 578L1062.57 578 1024 620 978.571 578 999.571 578C987.259 503.825 944.248 452 895 452"/></g></svg>