<svg xmlns="http://www.w3.org/2000/svg" xmlns:xlink="http://www.w3.org/1999/xlink" width="276" height="253" overflow="hidden"><defs><clipPath id="clip0"><path fill-rule="evenodd" d="M734 410 1010 410 1010 663 734 663Z" clip-rule="evenodd"/></clipPath></defs><metadata>OOXML preset shape geometry</metadata><g clip-path="url(#clip0)" transform="translate(-734 -410)"><path fill="#B4C7E7" fill-rule="evenodd" stroke="#2F528F" stroke-miterlimit="8" stroke-width="8" d="M738 442.5C738 455.479 767.885 466 804.75 466 841.615 466 871.5 455.479 871.5 442.5 871.5 429.521 901.385 419 938.25 419 975.115 419 1005 429.521 1005 442.5L1005 630.5C1005 617.521 975.115 607 938.25 607 901.385 607 871.5 617.521 871.5 630.5 871.5 643.479 841.615 654 804.75 654 767.885 654 738 643.479 738 630.5Z"/></g></svg>