<svg xmlns="http://www.w3.org/2000/svg" xmlns:xlink="http://www.w3.org/1999/xlink" width="187" height="187" overflow="hidden"><defs><clipPath id="clip0"><path fill-rule="evenodd" d="M734 448 921 448 921 635 734 635Z" clip-rule="evenodd"/></clipPath></defs><metadata>OOXML preset shape geometry</metadata><g clip-path="url(#clip0)" transform="translate(-734 -448)"><path fill="#B4C7E7" fill-rule="evenodd" d="M738 541C738 491.847 778.07 452 827.5 452 876.929 452 917 491.847 917 541 917 590.153 876.929 630 827.5 630 778.07 630 738 590.153 738 541Z"/><path fill="none" fill-rule="evenodd" stroke="#2F528F" stroke-miterlimit="8" stroke-width="8" d="M827.5 452 827.5 630M738 541 917 541"/><path fill="none" fill-rule="evenodd" stroke="#2F528F" stroke-miterlimit="8" stroke-width="8" d="M738 541C738 491.847 778.07 452 827.5 452 876.929 452 917 491.847 917 541 917 590.153 876.929 630 827.5 630 778.07 630 738 590.153 738 541Z"/></g></svg>