<svg xmlns="http://www.w3.org/2000/svg" xmlns:xlink="http://www.w3.org/1999/xlink" width="233" height="233" overflow="hidden"><defs><clipPath id="clip0"><path fill-rule="evenodd" d="M789 418 1022 418 1022 651 789 651Z" clip-rule="evenodd"/></clipPath></defs><metadata>OOXML preset shape geometry</metadata><g clip-path="url(#clip0)" transform="translate(-789 -418)"><path fill="#B4C7E7" fill-rule="evenodd" d="M794 534C794 472.144 844.144 422 906 422 967.856 422 1018 472.144 1018 534 1018 595.856 967.856 646 906 646 844.144 646 794 595.856 794 534Z"/><path fill="none" fill-rule="evenodd" stroke="#2F528F" stroke-miterlimit="8" stroke-width="8" d="M826.804 454.804 985.196 613.196M985.196 454.804 826.804 613.196"/><path fill="none" fill-rule="evenodd" stroke="#2F528F" stroke-miterlimit="8" stroke-width="8" d="M794 534C794 472.144 844.144 422 906 422 967.856 422 1018 472.144 1018 534 1018 595.856 967.856 646 906 646 844.144 646 794 595.856 794 534Z"/></g></svg>