<svg xmlns="http://www.w3.org/2000/svg" xmlns:xlink="http://www.w3.org/1999/xlink" width="292" height="199" overflow="hidden"><defs><clipPath id="clip0"><path fill-rule="evenodd" d="M734 451 1026 451 1026 650 734 650Z" clip-rule="evenodd"/></clipPath></defs><metadata>OOXML preset shape geometry</metadata><g clip-path="url(#clip0)" transform="translate(-734 -451)"><path fill="#B4C7E7" fill-rule="evenodd" d="M738 487.5C738 470.103 801.352 456 879.5 456 957.648 456 1021 470.103 1021 487.5L1021 613.5C1021 630.897 957.648 645 879.5 645 801.352 645 738 630.897 738 613.5Z"/><path fill="none" fill-rule="evenodd" stroke="#2F528F" stroke-miterlimit="8" stroke-width="8" d="M1021 487.5C1021 504.897 957.648 519 879.5 519 801.352 519 738 504.897 738 487.5"/><path fill="none" fill-rule="evenodd" stroke="#2F528F" stroke-miterlimit="8" stroke-width="8" d="M738 487.5C738 470.103 801.352 456 879.5 456 957.648 456 1021 470.103 1021 487.5L1021 613.5C1021 630.897 957.648 645 879.5 645 801.352 645 738 630.897 738 613.5Z"/></g></svg>