<svg xmlns="http://www.w3.org/2000/svg" xmlns:xlink="http://www.w3.org/1999/xlink" width="276" height="199" overflow="hidden"><defs><clipPath id="clip0"><path fill-rule="evenodd" d="M734 415 1010 415 1010 614 734 614Z" clip-rule="evenodd"/></clipPath></defs><metadata>OOXML preset shape geometry</metadata><g clip-path="url(#clip0)" transform="translate(-734 -415)"><path fill="#B4C7E7" fill-rule="evenodd" d="M738 602.767C852.934 627.172 852.934 578.361 967.855 578.361L967.855 451.497 738 451.497ZM756.937 451.497 756.937 435.049 985.222 435.049 985.222 562.71C976.545 562.71 967.855 563.594 967.855 563.594L967.855 451.497ZM774.737 435.049 774.737 419 1005 419 1005 546.263C995.111 546.263 985.222 546.926 985.222 546.926L985.222 435.049Z"/><path fill="none" fill-rule="evenodd" stroke="#2F528F" stroke-miterlimit="8" stroke-width="8" d="M738 451.497 967.855 451.497 967.855 578.361C852.934 578.361 852.934 627.172 738 602.767ZM756.937 451.497 756.937 435.049 985.222 435.049 985.222 562.71C976.545 562.71 967.855 563.594 967.855 563.594M774.737 435.049 774.737 419 1005 419 1005 546.263C995.111 546.263 985.222 546.926 985.222 546.926"/></g></svg>