<svg xmlns="http://www.w3.org/2000/svg" xmlns:xlink="http://www.w3.org/1999/xlink" width="303" height="305" overflow="hidden"><defs><clipPath id="clip0"><path fill-rule="evenodd" d="M729 412 1032 412 1032 717 729 717Z" clip-rule="evenodd"/></clipPath></defs><metadata>OOXML preset shape geometry</metadata><g clip-path="url(#clip0)" transform="translate(-729 -412)"><path fill="#B4C7E7" fill-rule="evenodd" stroke="#2F528F" stroke-miterlimit="8" stroke-width="8" d="M886.581 482.084 929.722 426 926.287 500.62 971.424 466.972 950.333 510.372 1018 511.831 958.176 547.443 974.833 571.829 950.333 585.004 982.702 627.913 927.778 611.354 931.693 650.362 895.889 631.827 888.526 669.376 865.97 650.362 850.778 680.613 835.572 660.115 801.739 705 800.287 661.6 754.657 656.24 781.167 624.529 738 592.328 789.009 575.73 753.193 532.821 807.637 526.97 796.359 472.823 848.833 508.434 864.026 450.374Z"/></g></svg>