<svg xmlns="http://www.w3.org/2000/svg" xmlns:xlink="http://www.w3.org/1999/xlink" width="70" height="224" overflow="hidden"><defs><clipPath id="clip0"><path fill-rule="evenodd" d="M847 448 917 448 917 672 847 672Z" clip-rule="evenodd"/></clipPath></defs><metadata>OOXML preset shape geometry</metadata><g clip-path="url(#clip0)" transform="translate(-847 -448)"><path fill="#B4C7E7" fill-rule="evenodd" d="M917 667C906.783 667 898.5 665.62 898.5 663.917L898.5 562.583C898.5 560.88 890.217 559.5 880 559.5 890.217 559.5 898.5 558.12 898.5 556.417L898.5 455.083C898.5 453.38 906.783 452 917 452Z"/><path fill="none" fill-rule="evenodd" stroke="#4472C4" stroke-miterlimit="8" stroke-width="8" d="M917 667C906.783 667 898.5 665.62 898.5 663.917L898.5 562.583C898.5 560.88 890.217 559.5 880 559.5 890.217 559.5 898.5 558.12 898.5 556.417L898.5 455.083C898.5 453.38 906.783 452 917 452"/></g></svg>