<svg xmlns="http://www.w3.org/2000/svg" xmlns:xlink="http://www.w3.org/1999/xlink" width="282" height="155" overflow="hidden"><defs><clipPath id="clip0"><path fill-rule="evenodd" d="M165 100 447 100 447 255 165 255Z" clip-rule="evenodd"/></clipPath></defs><metadata>OOXML preset shape geometry</metadata><g clip-path="url(#clip0)" transform="translate(-165 -100)"><path fill="#B4C7E7" fill-rule="evenodd" stroke="#2F528F" stroke-miterlimit="8" stroke-width="8" d="M422 250.104C421.944 238.506 431.077 229.058 442.399 229 442.432 229 442.466 229 442.5 229L442.5 250Z"/><path fill="#B4C7E7" fill-rule="evenodd" stroke="#2F528F" stroke-miterlimit="8" stroke-width="8" d="M170.396 229C181.718 228.943 190.942 238.075 191 249.396 191 249.431 191 249.465 191 249.5L170.5 249.5Z"/><path fill="#B4C7E7" fill-rule="evenodd" stroke="#2F528F" stroke-miterlimit="8" stroke-width="8" d="M190 104.894C190.058 116.492 180.704 125.941 169.106 126 169.071 126 169.035 126 169 126L169 105Z"/><path fill="#B4C7E7" fill-rule="evenodd" stroke="#2F528F" stroke-miterlimit="8" stroke-width="8" d="M441.606 126C430.285 126.06 421.059 116.707 421 105.109 421 105.073 421 105.036 421 105L441.5 105Z"/></g></svg>