<svg xmlns="http://www.w3.org/2000/svg" xmlns:xlink="http://www.w3.org/1999/xlink" width="61" height="181" overflow="hidden"><defs><clipPath id="clip0"><path fill-rule="evenodd" d="M916 448 977 448 977 629 916 629Z" clip-rule="evenodd"/></clipPath></defs><metadata>OOXML preset shape geometry</metadata><g clip-path="url(#clip0)" transform="translate(-916 -448)"><path fill="#B4C7E7" fill-rule="evenodd" d="M917 452C924.456 452 930.5 453.007 930.5 454.25L930.5 535.75C930.5 536.993 936.544 538 944 538 936.544 538 930.5 539.007 930.5 540.25L930.5 621.75C930.5 622.993 924.456 624 917 624Z"/><path fill="none" fill-rule="evenodd" stroke="#4472C4" stroke-miterlimit="8" stroke-width="8" d="M917 452C924.456 452 930.5 453.007 930.5 454.25L930.5 535.75C930.5 536.993 936.544 538 944 538 936.544 538 930.5 539.007 930.5 540.25L930.5 621.75C930.5 622.993 924.456 624 917 624"/></g></svg>