<svg xmlns="http://www.w3.org/2000/svg" xmlns:xlink="http://www.w3.org/1999/xlink" width="24" height="24" version="1.1" viewBox="0 0 24 24"><title>ico-video-blue</title><desc>Created with Sketch.</desc><g id="Page-1" fill="none" fill-rule="evenodd" stroke="none" stroke-width="1"><g id="ico-video-blue" fill="#0082D3"><path id="" d="M19.5235634,7.00182501 L15,10.0073 L15,7.00182501 L14,6 L3,6 L2,7.00182501 L2,18.0219001 L3.01196289,19 L13.9766235,19 L15,17.9463839 L15,15.0164251 L19.4428425,18.0219001 L22,18.0219001 C22,18.0219001 22,21.0404783 22,16.3609272 L22,7.00182501 L19.5235634,7.00182501 Z M21,17.0200751 L20,17.0200751 L15,13.5136876 L15,11.5100376 L20,8.00365002 L21,8.00365002 L21,17.0200751 Z M3,7.00182501 L14,7.00182501 L14,18.0219001 L3,18.0219001 L3,7.00182501 Z"/></g></g></svg>